<svg xmlns="http://www.w3.org/2000/svg" width="220.004" height="320" viewBox="0 0 220.004 320">
  <path id="lightbulb-regular" d="M110,50a60.065,60.065,0,0,0-60,60,10,10,0,1,0,20,0,40.046,40.046,0,0,1,40-40,10,10,0,1,0,0-20ZM60.039,286.987a9.936,9.936,0,0,0,1.675,5.525l15.319,23.025A10.005,10.005,0,0,0,85.358,320H134.64a9.989,9.989,0,0,0,8.325-4.463l15.319-23.025a10.052,10.052,0,0,0,1.675-5.525L159.991,260H60.014ZM110,0C46.076,0,0,51.857,0,110a109.389,109.389,0,0,0,27.226,72.364c10.4,11.869,26.713,36.751,32.763,57.6V240h30v-.075a29.572,29.572,0,0,0-1.344-8.794,197.077,197.077,0,0,0-38.857-68.545A79.753,79.753,0,0,1,30.032,110C29.907,63.976,67.326,30,110,30a79.945,79.945,0,0,1,60.22,132.59A197.52,197.52,0,0,0,131.409,231a29.692,29.692,0,0,0-1.388,8.938V240h30v-.031c6.05-20.857,22.363-45.738,32.763-57.6A109.952,109.952,0,0,0,110,0Z"/>
</svg>
