<svg xmlns="http://www.w3.org/2000/svg" width="219.995" height="320" viewBox="0 0 219.995 320">
  <path id="lightbulb-solid" d="M60.036,283.962a20.008,20.008,0,0,0,3.35,11.056l10.681,16.056A19.993,19.993,0,0,0,90.717,320h38.568a19.993,19.993,0,0,0,16.649-8.925l10.681-16.056a19.993,19.993,0,0,0,3.35-11.056l.025-23.968H60l.031,23.968ZM0,110a109.384,109.384,0,0,0,27.224,72.361c10.325,11.781,26.474,36.393,32.631,57.155.025.162.044.325.069.487H160.072c.025-.163.044-.319.069-.487,6.156-20.762,22.306-45.374,32.631-57.155A109.938,109.938,0,0,0,109.654,0C45.9.193,0,51.855,0,110ZM110,60a50.057,50.057,0,0,0-50,50,10,10,0,0,1-20,0,70.075,70.075,0,0,1,70-70,10,10,0,0,1,0,20Z" transform="translate(0 0.001)" fill="#fc0"/>
</svg>
